<svg id="Ebene_1" data-name="Ebene 1" xmlns="http://www.w3.org/2000/svg" viewBox="0 0 1000 1000"><defs><style>.cls-1{fill:#88c7ea;}</style></defs><title>Logo Sigel Normal</title><path id="Logo_Sigel_Normal" data-name="Logo Sigel Normal" class="cls-1" d="M487.82,81.1C256.46,81.1,68.91,268.65,68.91,500S256.46,918.9,487.82,918.9,906.72,731.35,906.72,500,719.17,81.1,487.82,81.1Zm139,637.14L505.51,780.32a33.59,33.59,0,0,1-45.23-14.59L411,669.49a27.78,27.78,0,0,1,12.05-37.32l4.44-2.27A27.74,27.74,0,0,1,464.82,642L495.58,702a18.74,18.74,0,0,0,25.23,8.16l80.72-41.32c31.86-16.31,51.31-36.74,57.83-60.74,5.46-20.15,1.95-42.65-10.46-66.89-12.49-24.4-35.7-53.48-75.39-53.48-17.08,0-36.12,5.31-56.6,15.79L436.3,544.81A27.73,27.73,0,1,1,411,495.44L484.26,458c26.49-13.56,42.44-31.15,47.42-52.29,5.18-22-2.52-43.79-9.89-58.2-10.53-20.56-30.07-45.07-63.39-45.07-14.22,0-30,4.41-47,13.11L338,353.05a18.75,18.75,0,0,0-8.15,25.23l18.66,36.46a27.76,27.76,0,0,1-12,37.32L332,454.33a27.72,27.72,0,0,1-37.32-12.05l-37.16-72.61a33.61,33.61,0,0,1,14.6-45.22l113.92-58.31c26.34-13.49,51.87-20.32,75.85-20.32,47.63,0,87.47,26.59,112.18,74.87,8.23,16.07,25.86,57.92,11.95,99.39a11.52,11.52,0,0,0,1.31,10.2,12.6,12.6,0,0,0,9.6,5.56c43.63,3.46,82.17,31.84,105.73,77.86C744.77,595.91,716.4,672.38,626.8,718.24Z"/></svg>