<svg id="Ebene_1" data-name="Ebene 1" xmlns="http://www.w3.org/2000/svg" viewBox="0 0 1000 1000"><title>Logo Sigel Schwarz</title><path id="Logo_Sigel_Schwarz" data-name="Logo Sigel Schwarz" d="M528,99.65c-231.35,0-418.9,187.55-418.9,418.91S296.65,937.46,528,937.46s418.9-187.55,418.9-418.9S759.35,99.65,528,99.65ZM667,736.79l-121.3,62.09a33.59,33.59,0,0,1-45.23-14.6l-49.25-96.23a27.76,27.76,0,0,1,12.05-37.32l4.43-2.27a27.72,27.72,0,0,1,37.32,12l30.75,60.08A18.73,18.73,0,0,0,561,728.74l80.71-41.32c31.86-16.31,51.32-36.74,57.83-60.73,5.47-20.15,2-42.66-10.46-66.89-12.48-24.4-35.7-53.49-75.38-53.49-17.09,0-36.13,5.32-56.6,15.8l-80.62,41.26A27.73,27.73,0,0,1,451.21,514l73.24-37.49c26.48-13.55,42.43-31.14,47.42-52.29,5.18-22-2.52-43.78-9.9-58.19C551.45,345.47,531.91,321,498.59,321c-14.23,0-30.06,4.41-47,13.11L378.2,371.61a18.73,18.73,0,0,0-8.15,25.23l18.66,36.46a27.76,27.76,0,0,1-12,37.32l-4.43,2.27a27.71,27.71,0,0,1-37.32-12.06l-37.17-72.6A33.62,33.62,0,0,1,312.35,343l113.92-58.31c26.34-13.48,51.86-20.32,75.85-20.32,47.62,0,87.46,26.59,112.18,74.87,8.22,16.08,25.85,57.93,12,99.4a11.46,11.46,0,0,0,1.31,10.19,12.57,12.57,0,0,0,9.6,5.57c43.63,3.45,82.16,31.83,105.72,77.86C785,614.47,756.59,690.93,667,736.79Z"/></svg>