<svg id="Ebene_1" data-name="Ebene 1" xmlns="http://www.w3.org/2000/svg" viewBox="0 0 1000 1000"><defs><style>.cls-1{fill:#fff;}</style></defs><title>Logo Sigel Weiß</title><path id="Logo_Sigel_Weiß" data-name="Logo Sigel Weiß" class="cls-1" d="M500,81.1C268.65,81.1,81.1,268.65,81.1,500S268.65,918.9,500,918.9,918.9,731.35,918.9,500,731.35,81.1,500,81.1ZM639,718.24l-121.3,62.08a33.59,33.59,0,0,1-45.23-14.59l-49.25-96.24a27.76,27.76,0,0,1,12.05-37.32l4.43-2.27A27.75,27.75,0,0,1,477,642L507.76,702A18.75,18.75,0,0,0,533,710.19l80.71-41.32c31.86-16.31,51.32-36.74,57.83-60.74,5.47-20.15,2-42.65-10.46-66.89-12.48-24.4-35.7-53.48-75.38-53.48-17.09,0-36.13,5.31-56.6,15.79l-80.62,41.26a27.73,27.73,0,0,1-25.27-49.37L496.45,458c26.48-13.56,42.43-31.15,47.42-52.29,5.18-22-2.52-43.79-9.9-58.2-10.52-20.56-30.06-45.07-63.38-45.07-14.23,0-30.06,4.41-47,13.11L350.2,353.05a18.73,18.73,0,0,0-8.15,25.23l18.66,36.46a27.76,27.76,0,0,1-12,37.32l-4.43,2.27a27.72,27.72,0,0,1-37.32-12.05l-37.17-72.61a33.6,33.6,0,0,1,14.61-45.22l113.92-58.31c26.34-13.49,51.86-20.32,75.85-20.32,47.62,0,87.46,26.59,112.18,74.87,8.22,16.07,25.85,57.92,12,99.39a11.48,11.48,0,0,0,1.31,10.2,12.56,12.56,0,0,0,9.6,5.56c43.63,3.46,82.16,31.84,105.72,77.86C757,595.91,728.59,672.38,639,718.24Z"/></svg>